# xmcd
#
# Track frame offsets: 
#        150
#        10376
#        24326
#        36852
#        48939
#        61255
#        74273
#        86334
#        99519
#        112062
#        124985
#        133438
#        144754
#        158346
#
# Disc length: 2239 seconds
#
# Revision: 0
# Processed by: cddbd v1.5.2PL0 Copyright (c) Steve Scherf et al.
# Submitted via: ExactAudioCopy v1.0b4
#
DISCID=b608bd0e
DTITLE=Sonny Boy Williamson - The Chess Years Vol 3 (LP)
DYEAR=1900
DGENRE=Blues
TTITLE0=Let Your Conscience Be Your Guide
TTITLE1=Unseeing Eye
TTITLE2=Keep Your Hand Out Of My Pocket
TTITLE3=Cool Disposition
TTITLE4=The Goat
TTITLE5=I Never Do Wrong
TTITLE6=Santa Claus
TTITLE7=It's Sad To Be Alone
TTITLE8=I Can't Do Without You
TTITLE9=Open Road
TTITLE10=Checkin' Up On My Baby
TTITLE11=Peach Tree
TTITLE12=Lonesome Cabin
TTITLE13=Temperature 110
EXTD=
EXTT0=
EXTT1=
EXTT2=
EXTT3=
EXTT4=
EXTT5=
EXTT6=
EXTT7=
EXTT8=
EXTT9=
EXTT10=
EXTT11=
EXTT12=
EXTT13=
PLAYORDER=
